<?xml version="1.0" encoding="utf-8"?><svg xml:space="preserve" viewBox="0 0 100 100" y="0" x="0" xmlns="http://www.w3.org/2000/svg" id="Layer_1" version="1.1" width="47px" height="47px" xmlns:xlink="http://www.w3.org/1999/xlink" style="width:100%;height:100%;animation-play-state:paused" ><g class="ldl-scale" style="transform-origin:50% 50% 0px;transform:rotate(0deg) scale(0.8);animation-play-state:paused" ><path fill="#333" d="M72.7 71.5c-8.8 0-15.7-7.3-22.1-15.3-6.6 8.1-13.7 15.3-23.3 15.3C14.2 71.5 5 62.7 5 50s9.2-21.5 22.3-21.5c9.4 0 16.6 7.6 23.2 15.9 6.4-8 13.1-15.6 22-15.9h.1C85 28.5 95 38.1 95 50c0 12.3-11.8 21.5-22.3 21.5zM55.2 50.3c5.7 7.1 11.5 13.9 17.5 13.9 8.4 0 15-7.6 15-14.2 0-7.7-6.8-14.1-14.9-14.2-6.2.3-11.7 7-17.6 14.5zM27.3 35.8c-9.1 0-15 5.6-15 14.2 0 8.5 6 14.2 15 14.2 6.8 0 12.8-6.6 18.6-13.9-5.9-7.4-12-14.5-18.6-14.5z" style="fill:rgb(255, 255, 255);animation-play-state:paused" ></path>
<metadata xmlns:d="https://loading.io/stock/" style="animation-play-state:paused" ><d:name style="animation-play-state:paused" >infinity</d:name>
<d:tags style="animation-play-state:paused" >mobius,ring,cycle,track,unlimited,infinity,web application</d:tags>
<d:license style="animation-play-state:paused" >by</d:license>
<d:slug style="animation-play-state:paused" >fg4zt1</d:slug></metadata></g><!-- generated by https://loading.io/ --></svg>